<?xml version="1.0" encoding="UTF-8" standalone="no"?>
<!DOCTYPE svg PUBLIC "-//W3C//DTD SVG 1.1//EN" "http://www.w3.org/Graphics/SVG/1.1/DTD/svg11.dtd">
<svg width="100%" height="100%" viewBox="0 0 2435 1632" version="1.1" xmlns="http://www.w3.org/2000/svg" xmlns:xlink="http://www.w3.org/1999/xlink" xml:space="preserve" xmlns:serif="http://www.serif.com/" style="fill-rule:evenodd;clip-rule:evenodd;stroke-linecap:round;stroke-linejoin:round;stroke-miterlimit:10;">
    <g transform="matrix(1,0,0,1,-351.080191,-45.559986)">
        <g transform="matrix(0.857939,0,0,0.764953,726.581667,-870.1849)">
            <g transform="matrix(0.000382,0,0,-0.000429,-12.625212,1699.036637)">
                <path d="M-1953.849,13078.56L2309447,13078.56" style="fill:none;fill-rule:nonzero;stroke:black;stroke-width:57294px;"/>
            </g>
        </g>
        <g transform="matrix(0.857939,0,0,0.764953,726.581667,-870.1849)">
            <g transform="matrix(0.000382,0,0,-0.000429,-12.625212,2393.709401)">
                <path d="M-1953.849,16470.07L2309447,16470.07" style="fill:none;fill-rule:nonzero;stroke:black;stroke-width:57294px;"/>
            </g>
        </g>
        <g transform="matrix(0.857939,0,0,0.764953,726.581667,-870.1849)">
            <g transform="matrix(0.00027,-0.000303,-0.00027,-0.000303,-325.836851,2040.178035)">
                <path d="M-2596,2689L1154378,2689" style="fill:none;fill-rule:nonzero;stroke:black;stroke-width:61137px;"/>
            </g>
        </g>
        <g transform="matrix(0.857939,0,0,0.764953,726.581667,-870.1849)">
            <g transform="matrix(0.00027,-0.000303,-0.00027,-0.000303,872.054446,2376.845384)">
                <path d="M-1317,3009L1155657,3009" style="fill:none;fill-rule:nonzero;stroke:black;stroke-width:61137px;"/>
            </g>
        </g>
        <g transform="matrix(0.857939,0,0,0.764953,726.581667,-870.1849)">
            <g transform="matrix(-0.00027,-0.000303,-0.00027,0.000303,-12.814578,2373.934875)">
                <path d="M-2596,3009L1154378,3009" style="fill:none;fill-rule:nonzero;stroke:black;stroke-width:61137px;"/>
            </g>
        </g>
        <g transform="matrix(0.857939,0,0,0.764953,726.581667,-870.1849)">
            <g transform="matrix(-0.00027,-0.000303,-0.00027,0.000303,1184.73031,2037.654082)">
                <path d="M-1317,2689L1155657,2689" style="fill:none;fill-rule:nonzero;stroke:black;stroke-width:61137px;"/>
            </g>
        </g>
        <g transform="matrix(0.857939,0,0,0.764953,726.581667,-870.1849)">
            <g transform="matrix(0.000196,0.000368,-0.000328,0.00022,411.976848,2369.507717)">
                <path d="M-549068.642,967680.819L1700840.093,967680.82" style="fill:none;fill-rule:nonzero;stroke:black;stroke-width:61140px;"/>
            </g>
        </g>
        <g transform="matrix(0.857939,0,0,0.764953,726.581667,-870.1849)">
            <g transform="matrix(0.000224,0.000347,-0.00031,0.000252,253.39653,1942.155207)">
                <path d="M-695946.835,1361314.936L2659859.395,1361314.936" style="fill:none;fill-rule:nonzero;stroke:black;stroke-width:61140px;"/>
            </g>
        </g>
        <g transform="matrix(0.857939,0,0,0.764953,726.581667,-870.1849)">
            <g transform="matrix(0.000119,0.000408,-0.000364,0.000133,784.170571,1977.845868)">
                <path d="M-1287617.495,1773738.786L2439394.94,1773738.786" style="fill:none;fill-rule:nonzero;stroke:black;stroke-width:61140px;"/>
            </g>
        </g>
        <g transform="matrix(0.857939,0,0,0.764953,726.581667,-870.1849)">
            <g transform="matrix(-0.000121,0.000407,-0.000363,-0.000136,1369.53149,2449.265262)">
                <path d="M-1277972.129,1773729.778L2456994.363,1773729.778" style="fill:none;fill-rule:nonzero;stroke:black;stroke-width:61140px;"/>
            </g>
        </g>
        <g transform="matrix(0.857939,0,0,0.764953,726.581667,-870.1849)">
            <g transform="matrix(0,0.000429,-0.000382,0,946.961228,2629.05095)">
                <path d="M-1366620.183,1361337.426L1351180.966,1361337.426" style="fill:none;fill-rule:nonzero;stroke:black;stroke-width:61140px;"/>
            </g>
        </g>
        <g transform="matrix(0.857939,0,0,0.764953,726.581667,-870.1849)">
            <g transform="matrix(0.000382,0,0,-0.000429,-318.590878,2051.963437)">
                <path d="M-1261.792,11766.56L1954539,11766.56" style="fill:none;fill-rule:nonzero;stroke:black;stroke-width:61140px;"/>
            </g>
        </g>
        <g transform="matrix(0.857939,0,0,0.764953,726.581667,-870.1849)">
            <g transform="matrix(0.000311,-0.000249,0.000222,0.000349,378.060403,1864.742664)">
                <path d="M-133534.65,415417.285L1286710.209,415417.285" style="fill:none;fill-rule:nonzero;stroke:black;stroke-width:61140px;"/>
            </g>
        </g>
        <g transform="matrix(0.857939,0,0,0.764953,726.581667,-870.1849)">
            <g transform="matrix(0.000316,0.000241,-0.000215,0.000354,553.057414,1932.177463)">
                <path d="M-122633.901,396897.204L1275809.46,396897.204" style="fill:none;fill-rule:nonzero;stroke:black;stroke-width:61140px;"/>
            </g>
        </g>
        <g transform="matrix(0.857939,0,0,0.764953,726.581667,-870.1849)">
            <g transform="matrix(4.856598,0,0,5.446957,-442.434124,3074.069043)">
                <path d="M321,17L336,24L321,31L321,17Z"/>
            </g>
        </g>
        <g transform="matrix(0.857939,0,0,0.764953,726.581667,-870.1849)">
            <g transform="matrix(0.000382,0,0,-0.000429,429.325195,3207.519059)">
                <path d="M0,0L1841501,0" style="fill:none;fill-rule:nonzero;stroke:black;stroke-width:61140px;"/>
            </g>
        </g>
        <g transform="matrix(0.857939,0,0,0.764953,726.581667,-870.1849)">
            <g transform="matrix(4.856598,0,0,5.446957,-442.434124,-466.453035)">
                <path d="M172,356L179.5,342L187,356L172,356Z"/>
            </g>
        </g>
        <g transform="matrix(0.857939,0,0,0.764953,726.581667,-870.1849)">
            <g transform="matrix(0,-0.000429,0.000382,0,-350.15898,2333.282669)">
                <path d="M-2038350.5,2038350.5L2038350.5,2038350.5" style="fill:none;fill-rule:nonzero;stroke:black;stroke-width:61140px;"/>
            </g>
        </g>
        <g transform="matrix(0.857939,0,0,0.764953,726.581667,-870.1849)">
            <g transform="matrix(-0.000327,0.000222,-0.000198,-0.000367,1255.954695,2951.811912)">
                <path d="M-169574.204,606695.285L2160937.606,606695.285" style="fill:none;fill-rule:nonzero;stroke:black;stroke-width:61140px;"/>
            </g>
        </g>
        <g transform="matrix(0.857939,0,0,0.764953,726.581667,-870.1849)">
            <g transform="matrix(4.856598,0,0,5.446957,-442.434124,2502.1381)">
                <path d="M296,73.881L281,69L286.118,84L296,73.881Z"/>
            </g>
        </g>
        <g transform="matrix(0.857939,0,0,0.764953,726.581667,-870.1849)">
            <g transform="matrix(0.000072,0.000421,-0.000375,0.000081,1119.880859,2995.162208)">
                <path d="M-239661.407,370131.494C-35606.595,251265.232 186646.883,239835.951 432896.364,370131.494" style="fill:none;fill-rule:nonzero;stroke:black;stroke-width:61140px;"/>
            </g>
        </g>
        <g transform="matrix(0.857939,0,0,0.764953,726.581667,-870.1849)">
            <g transform="matrix(-0.000196,0.000368,-0.000328,-0.00022,1080.800006,2795.693161)">
                <path d="M-548119.195,967925.058L1701789.645,967925.057" style="fill:none;fill-rule:nonzero;stroke:black;stroke-width:61140px;"/>
            </g>
        </g>
        <g transform="matrix(0.857939,0,0,0.764953,726.581667,-870.1849)">
            <g transform="matrix(-0.000218,0.000352,-0.000314,-0.000245,1446.086843,2612.938066)">
                <path d="M-728296.409,1393040.655L2657273.274,1393040.655" style="fill:none;fill-rule:nonzero;stroke:black;stroke-width:61140px;"/>
            </g>
        </g>
        <g transform="matrix(0.857939,0,0,0.764953,726.581667,-870.1849)">
            <g transform="matrix(0,-5.446957,-4.856598,0,1585.379797,3017.131836)">
                <ellipse cx="179.542" cy="237.995" rx="23" ry="22.5" style="fill:white;"/>
            </g>
        </g>
        <g transform="matrix(0.857939,0,0,0.764953,726.581667,-870.1849)">
            <g transform="matrix(0,-5.446957,-4.856598,0,2340.896446,3864.487735)">
                <ellipse cx="335.108" cy="237.995" rx="23" ry="23" style="fill:rgb(255,0,0);"/>
            </g>
        </g>
        <g transform="matrix(0.857939,0,0,0.764953,726.581667,-870.1849)">
            <g transform="matrix(0,-5.446957,-4.856598,0,1728.707228,3848.127799)">
                <ellipse cx="270.579" cy="176.471" rx="22.5" ry="22.5" style="fill:rgb(255,0,255);"/>
            </g>
        </g>
        <g transform="matrix(0.857939,0,0,0.764953,726.581667,-870.1849)">
            <g transform="matrix(0,-5.446957,-4.856598,0,545.639112,4183.261536)">
                <ellipse cx="179.542" cy="23.907" rx="23" ry="22.5"/>
            </g>
        </g>
        <g transform="matrix(0.857939,0,0,0.764953,726.581667,-870.1849)">
            <g transform="matrix(0,-5.446957,-4.856598,0,842.021641,2853.658301)">
                <ellipse cx="88.006" cy="176.471" rx="22.5" ry="23" style="fill:rgb(0,0,255);"/>
            </g>
        </g>
        <g transform="matrix(0.857939,0,0,0.764953,726.581667,-870.1849)">
            <g transform="matrix(0,-5.446957,-4.856598,0,2340.885518,3161.534213)">
                <circle cx="270.579" cy="302.521" r="22.5" style="fill:rgb(255,255,0);"/>
            </g>
        </g>
        <g transform="matrix(0.857939,0,0,0.764953,726.581667,-870.1849)">
            <g transform="matrix(0,-5.446957,-4.856598,0,1454.199932,2167.064715)">
                <ellipse cx="88.006" cy="302.521" rx="22.5" ry="23" style="fill:rgb(0,255,0);"/>
            </g>
        </g>
        <g transform="matrix(0.857939,0,0,0.764953,726.581667,-870.1849)">
            <g transform="matrix(0,-5.446957,-4.856598,0,829.871637,2169.785458)">
                <ellipse cx="23.979" cy="237.995" rx="23" ry="23" style="fill:rgb(0,255,255);"/>
            </g>
        </g>
        <g transform="matrix(0.857939,0,0,0.764953,726.581667,-870.1849)">
            <g transform="matrix(1.165583,0,0,1.30727,188.146544,813.363487)">
                <text x="158.58px" y="420.16px" style="font-family:'Arial-BoldMT', 'Arial', sans-serif;font-weight:700;font-size:150px;">V</text>
                <text x="258.629px" y="420.16px" style="font-family:'ArialMT', 'Arial', sans-serif;font-size:150px;">alue</text>
                <text x="583.897px" y="420.16px" style="font-family:'HiraginoSans-W4', 'Hiragino Sans', sans-serif;font-size:150px;">明度</text>
            </g>
        </g>
        <g transform="matrix(0.857939,0,0,0.764953,726.581667,-870.1849)">
            <g transform="matrix(1.165583,0,0,1.30727,1027.732803,2724.796393)">
                <text x="158.58px" y="420.16px" style="font-family:'Arial-BoldMT', 'Arial', sans-serif;font-weight:700;font-size:150px;">S</text>
                <text x="258.629px" y="420.16px" style="font-family:'ArialMT', 'Arial', sans-serif;font-size:150px;">aturation</text>
                <text x="884.044px" y="420.16px" style="font-family:'HiraginoSans-W4', 'Hiragino Sans', sans-serif;font-size:150px;">彩度</text>
            </g>
        </g>
        <g transform="matrix(0.857939,0,0,0.764953,726.581667,-870.1849)">
            <g transform="matrix(1.165583,0,0,1.30727,852.354148,2450.894712)">
                <text x="158.58px" y="420.16px" style="font-family:'Arial-BoldMT', 'Arial', sans-serif;font-weight:700;font-size:150px;">H</text>
                <text x="266.905px" y="420.16px" style="font-family:'ArialMT', 'Arial', sans-serif;font-size:150px;">ue</text>
                <text x="475.426px" y="420.16px" style="font-family:'HiraginoSans-W4', 'Hiragino Sans', sans-serif;font-size:150px;">色相</text>
            </g>
        </g>
    </g>
</svg>
